<?xml version="1.0" standalone="no"?>
<!DOCTYPE svg PUBLIC "-//W3C//DTD SVG 20010904//EN"
 "http://www.w3.org/TR/2001/REC-SVG-20010904/DTD/svg10.dtd">
<svg version="1.0" xmlns="http://www.w3.org/2000/svg"
 width="512.000000pt" height="512.000000pt" viewBox="0 0 512.000000 512.000000"
 preserveAspectRatio="xMidYMid meet">

<g transform="translate(0.000000,512.000000) scale(0.100000,-0.100000)"
fill="#000000" stroke="none">
<path d="M287 5109 c-103 -24 -206 -111 -254 -214 l-28 -60 0 -2275 0 -2275
28 -60 c37 -79 114 -156 191 -192 l61 -28 1675 0 1675 0 60 28 c78 36 150 107
186 182 16 33 29 66 29 73 0 9 63 12 280 12 l281 0 24 25 25 24 0 2211 0 2211
-25 24 -24 25 -281 0 c-229 0 -280 2 -280 14 0 7 -13 40 -30 72 -16 32 -30 60
-30 62 0 1 218 1 484 0 l484 -3 43 -30 c24 -17 57 -50 74 -74 l30 -43 3 -1001
2 -1001 -26 -54 c-30 -61 -87 -108 -143 -117 -81 -14 -93 -18 -111 -38 -20
-20 -20 -43 -20 -1140 0 -853 -3 -1129 -12 -1161 -16 -54 -90 -128 -144 -144
-27 -8 -116 -12 -258 -12 l-217 0 -24 -25 c-32 -31 -32 -69 0 -101 l26 -26
247 4 c246 3 247 3 307 31 79 37 156 114 192 191 l28 61 5 1103 5 1103 58 23
c111 46 182 123 217 236 20 64 20 86 18 1075 l-3 1010 -31 65 c-40 83 -102
145 -184 184 l-65 31 -2255 2 c-1289 0 -2271 -3 -2293 -8z m3374 -174 c24 -17
57 -50 74 -74 l30 -43 3 -2231 c2 -1745 0 -2242 -10 -2277 -15 -58 -87 -131
-144 -148 -55 -16 -3249 -18 -3307 -1 -53 14 -132 93 -146 144 -15 56 -15
4454 0 4509 14 50 83 123 134 141 34 12 284 14 1682 12 l1641 -2 43 -30z m409
-2375 l0 -2110 -75 0 -75 0 0 2110 0 2110 75 0 75 0 0 -2110z m300 0 l0 -2110
-75 0 -75 0 0 2110 0 2110 75 0 75 0 0 -2110z"/>
</g>
</svg>
